<?xml version="1.0" standalone="no"?>
<!DOCTYPE svg PUBLIC "-//W3C//DTD SVG 20010904//EN"
 "http://www.w3.org/TR/2001/REC-SVG-20010904/DTD/svg10.dtd">
<svg version="1.0" xmlns="http://www.w3.org/2000/svg"
 width="512.000000pt" height="512.000000pt" viewBox="0 0 512.000000 512.000000"
 preserveAspectRatio="xMidYMid meet">

<g transform="translate(0.000000,512.000000) scale(0.100000,-0.100000)"
fill="#000000" stroke="none">
<path d="M2476 4844 c-94 -29 -176 -143 -176 -246 l0 -28 -111 0 -111 0 -33
-33 c-20 -20 -36 -48 -40 -70 l-7 -37 -422 0 -422 0 -53 -26 c-64 -32 -116
-99 -131 -169 -8 -35 -10 -633 -8 -2050 l3 -2000 22 -40 c28 -53 78 -99 133
-124 45 -20 59 -21 1434 -21 1036 0 1399 3 1428 12 50 15 122 78 151 132 l22
41 3 2009 c1 1346 -1 2021 -8 2046 -18 66 -70 131 -129 162 l-53 28 -423 0
-423 0 -7 37 c-4 22 -20 50 -40 70 l-33 33 -111 0 -111 0 0 28 c0 63 -31 134
-80 182 -73 74 -161 95 -264 64z m150 -103 c46 -21 79 -66 89 -123 l7 -38
-162 0 -162 0 7 38 c14 79 83 142 155 142 14 0 43 -9 66 -19z m388 -287 c11
-28 6 -130 -6 -142 -17 -17 -879 -17 -896 0 -12 12 -17 114 -6 142 5 14 55 16
454 16 399 0 449 -2 454 -16z m-1010 -155 c7 -38 66 -99 95 -99 19 0 21 -6 21
-65 l0 -64 -439 -3 -439 -3 -27 -25 c-59 -55 -55 50 -55 -1577 l0 -1498 383
-382 382 -383 965 0 c945 0 966 0 998 20 18 11 41 34 52 52 20 33 20 55 20
1861 0 1987 4 1852 -55 1907 l-27 25 -439 3 -439 3 0 64 c0 59 2 65 21 65 29
0 88 61 95 99 l7 31 406 0 c453 0 450 0 499 -70 l22 -33 0 -2010 c0 -1968 0
-2010 -19 -2041 -11 -17 -35 -40 -53 -51 -33 -20 -51 -20 -1418 -20 -1367 0
-1385 0 -1418 20 -18 11 -42 34 -53 51 -19 31 -19 73 -19 2041 l0 2010 23 33
c48 70 45 70 498 70 l407 0 6 -31z m886 -164 l0 -65 -330 0 -330 0 0 65 0 65
330 0 330 0 0 -65z m-763 -208 c15 -54 43 -90 87 -111 51 -24 641 -24 692 0
44 21 72 57 87 111 l11 43 412 0 c362 0 415 -2 428 -16 14 -14 16 -192 16
-1816 0 -1662 -1 -1803 -17 -1820 -15 -17 -57 -18 -930 -18 l-913 0 0 280 c0
310 -3 325 -63 388 -64 67 -63 66 -382 72 l-290 5 -3 1447 c-2 1305 -1 1448
14 1462 14 14 66 16 428 16 l412 0 11 -43z m773 28 c0 -8 -9 -24 -20 -35 -19
-19 -33 -20 -320 -20 -287 0 -301 1 -320 20 -11 11 -20 27 -20 35 0 13 44 15
340 15 296 0 340 -2 340 -15z m-1070 -3033 c67 -33 71 -51 68 -311 l-3 -231
-280 280 -280 280 230 0 c199 0 235 -2 265 -18z"/>
<path d="M2152 3594 c-24 -17 -29 -53 -10 -72 17 -17 819 -17 836 0 19 19 14
55 -10 72 -19 14 -75 16 -408 16 -333 0 -389 -2 -408 -16z"/>
<path d="M1543 3309 c-62 -39 -73 -83 -73 -284 0 -160 2 -183 21 -221 38 -79
55 -84 305 -84 201 0 222 2 252 20 67 41 72 62 72 285 0 223 -5 244 -72 285
-30 18 -51 20 -253 20 -204 0 -222 -2 -252 -21z m461 -95 c24 -23 24 -355 0
-378 -13 -13 -46 -16 -209 -16 -243 0 -225 -17 -225 205 0 222 -18 205 225
205 163 0 196 -3 209 -16z"/>
<path d="M1834 3089 l-63 -62 -36 32 c-42 36 -58 38 -85 11 -30 -30 -25 -46
32 -106 78 -83 84 -82 189 22 95 94 107 121 67 148 -12 9 -26 16 -31 16 -5 0
-37 -28 -73 -61z"/>
<path d="M2284 3135 c-15 -23 -15 -27 0 -50 l16 -25 403 0 c300 0 406 3 415
12 7 7 12 24 12 38 0 14 -5 31 -12 38 -9 9 -115 12 -415 12 l-403 0 -16 -25z"/>
<path d="M2280 2930 c-15 -28 -3 -59 27 -71 14 -5 284 -9 653 -9 369 0 639 4
653 9 30 12 42 43 27 71 -11 20 -17 20 -680 20 -663 0 -669 0 -680 -20z"/>
<path d="M1565 2556 c-41 -18 -83 -69 -90 -109 -4 -18 -5 -114 -3 -214 3 -199
6 -208 72 -257 25 -19 44 -21 237 -24 195 -3 213 -2 253 17 27 14 50 35 64 60
21 36 22 52 22 233 0 186 -1 197 -22 228 -50 73 -56 75 -291 77 -161 2 -219 0
-242 -11z m433 -102 c21 -15 22 -21 22 -194 0 -173 -1 -179 -22 -194 -18 -13
-56 -16 -205 -16 -240 0 -223 -16 -223 210 0 226 -17 210 223 210 149 0 187
-3 205 -16z"/>
<path d="M1826 2320 l-62 -60 -29 30 c-33 34 -64 38 -88 12 -27 -30 -21 -45
47 -110 47 -46 68 -60 84 -55 30 7 182 167 182 190 0 24 -30 53 -54 53 -10 0
-46 -27 -80 -60z"/>
<path d="M2280 2370 c-15 -28 -3 -59 27 -71 13 -5 189 -9 401 -9 408 0 422 2
422 54 0 46 -1 46 -432 46 -400 0 -408 0 -418 -20z"/>
<path d="M2284 2165 c-15 -23 -15 -27 0 -50 l16 -25 659 0 c625 0 659 1 674
18 22 24 21 45 -1 65 -17 15 -78 17 -675 17 l-657 0 -16 -25z"/>
<path d="M1547 1778 c-67 -39 -77 -76 -77 -284 0 -205 11 -244 72 -282 33 -21
48 -22 254 -22 201 0 222 2 252 20 67 41 72 62 72 285 0 223 -5 244 -72 285
-30 18 -51 20 -248 20 -203 0 -217 -2 -253 -22z m457 -94 c13 -13 16 -44 16
-185 0 -98 -4 -179 -10 -190 -10 -18 -23 -19 -207 -19 -169 0 -199 2 -215 17
-16 14 -18 34 -18 182 0 135 3 171 16 189 15 21 20 22 209 22 163 0 196 -3
209 -16z"/>
<path d="M2284 1605 c-15 -23 -15 -27 0 -50 l16 -25 403 0 c300 0 406 3 415
12 7 7 12 24 12 38 0 14 -5 31 -12 38 -9 9 -115 12 -415 12 l-403 0 -16 -25z"/>
<path d="M2280 1401 c-14 -28 -13 -38 10 -61 20 -20 33 -20 670 -20 637 0 650
0 670 20 23 23 24 33 10 61 -10 18 -29 19 -680 19 -651 0 -670 -1 -680 -19z"/>
</g>
</svg>
